<svg width="18" height="28" viewBox="0 0 18 28" fill="none" xmlns="http://www.w3.org/2000/svg">
<path id="Vector" d="M17.0607 13.1013L0.960717 0.526325C0.918647 0.493204 0.868088 0.472621 0.814848 0.466939C0.761607 0.461258 0.707843 0.470708 0.659731 0.494204C0.611619 0.517701 0.57111 0.554291 0.542856 0.599773C0.514602 0.645254 0.499749 0.697783 0.500003 0.751325V3.51204C0.500003 3.68704 0.582146 3.8549 0.717861 3.96204L13.575 14.0013L0.717861 24.0406C0.578575 24.1478 0.500003 24.3156 0.500003 24.4906V27.2513C0.500003 27.4906 0.775003 27.6228 0.960717 27.4763L17.0607 14.9013C17.1976 14.7946 17.3083 14.658 17.3844 14.5021C17.4605 14.3461 17.5001 14.1749 17.5001 14.0013C17.5001 13.8278 17.4605 13.6565 17.3844 13.5006C17.3083 13.3446 17.1976 13.2081 17.0607 13.1013Z" fill="#737373"/>
</svg>
